# xmcd
#
# Track frame offsets:
#   150
#   14796
#   30183
#   44671
#   58020
#   72489
#   87180
#   104394
#   118513
#   133307
#   146971
#   161097
#   174525
#   187368
#   203435
#   218016
#   233874
#   250335
#   266269
#   283888
#   302406
#   317545
#
# Disc length: 4439 seconds
#
# Revision: 0
# Processed by: cddbd v1.5.2PL0 Copyright (c) Steve Scherf et al.
# Submitted via: uFREEDB ActiveX Control 1.5
#
DISCID=4d115516
DTITLE=Joao Neto e Frederico - ao vivo em Sao Jose do Rio Preto
DYEAR=1900
DGENRE=Country
TTITLE0=Enquanto o sol brilhar
TTITLE1=Menina
TTITLE2=Detonou
TTITLE3=Agarra Agarra
TTITLE4=Eu quero te namorar
TTITLE5=Meu anjo
TTITLE6=Vou te procurar
TTITLE7=Dificil
TTITLE8=E pra acabar
TTITLE9=Pede pra sair
TTITLE10=Chuva de verao
TTITLE11=Aqui nao pica pau
TTITLE12=Galera do boteco
TTITLE13=Se entrega de uma vez
TTITLE14=Filme de amor
TTITLE15=Pra dizer adeus
TTITLE16=Eu e voce
TTITLE17=Pout - Porrie
TTITLE18=Teu olhar
TTITLE19=Pout Porrie
TTITLE20=So de voce
TTITLE21=Pega fogo cabare
EXTD=
EXTT0=
EXTT1=
EXTT2=
EXTT3=
EXTT4=
EXTT5=
EXTT6=
EXTT7=
EXTT8=
EXTT9=
EXTT10=
EXTT11=
EXTT12=
EXTT13=
EXTT14=
EXTT15=
EXTT16=
EXTT17=
EXTT18=
EXTT19=
EXTT20=
EXTT21=
PLAYORDER=
